<?xml version="1.0" standalone="no"?>
<!DOCTYPE svg PUBLIC "-//W3C//DTD SVG 20010904//EN"
 "http://www.w3.org/TR/2001/REC-SVG-20010904/DTD/svg10.dtd">
<svg version="1.0" xmlns="http://www.w3.org/2000/svg"
 width="398.000000pt" height="398.000000pt" viewBox="0 0 398.000000 398.000000"
 preserveAspectRatio="xMidYMid meet">
<metadata>
Created by potrace 1.11, written by Peter Selinger 2001-2013
</metadata>
<g transform="translate(0.000000,398.000000) scale(0.100000,-0.100000)"
fill="#000000" stroke="none">
<path d="M944 2922 c-6 -10 -15 -33 -19 -52 -4 -19 -10 -39 -14 -45 -4 -5 -16
-37 -26 -70 -11 -33 -22 -64 -26 -70 -3 -5 -10 -28 -14 -50 -4 -22 -10 -44
-14 -50 -4 -5 -16 -37 -26 -70 -11 -33 -22 -64 -26 -70 -3 -5 -10 -28 -14 -50
-4 -22 -10 -44 -14 -50 -4 -5 -16 -37 -26 -70 -11 -33 -22 -64 -26 -70 -4 -5
-10 -26 -14 -45 -4 -19 -11 -41 -15 -50 -5 -8 -16 -42 -26 -75 -10 -33 -21
-64 -25 -70 -4 -5 -10 -27 -14 -48 -4 -20 -11 -40 -16 -43 -5 -3 -9 -16 -9
-29 0 -13 -4 -26 -9 -29 -5 -4 -12 -24 -16 -46 -4 -22 -10 -42 -15 -45 -5 -3
-11 -23 -15 -45 -4 -22 -11 -42 -16 -46 -5 -3 -9 -13 -9 -23 0 -10 -7 -32 -15
-47 -8 -16 -15 -39 -15 -51 0 -12 -4 -24 -9 -27 -5 -3 -12 -23 -16 -43 -4 -21
-10 -42 -14 -48 -4 -5 -15 -37 -25 -70 -10 -33 -22 -67 -26 -75 -4 -9 -11 -31
-15 -50 -4 -19 -11 -41 -16 -50 -16 -32 -39 -101 -39 -120 0 -19 7 -20 240
-20 220 0 241 1 246 17 3 10 9 25 13 33 5 9 12 35 16 58 4 23 11 44 16 48 5 3
9 16 9 29 0 13 4 26 9 29 5 3 12 23 16 43 4 21 10 43 15 48 4 6 11 28 15 50 4
22 10 45 14 50 4 6 16 37 25 70 10 33 21 69 26 80 4 11 23 67 40 125 18 58 36
114 40 125 5 11 22 67 40 125 18 58 36 112 40 120 4 9 11 31 15 50 4 19 11 41
15 50 9 19 36 105 45 144 8 36 19 23 35 -39 6 -22 15 -49 20 -60 5 -11 16 -47
26 -80 9 -33 21 -64 25 -70 4 -5 10 -28 14 -50 4 -22 11 -44 15 -50 5 -5 11
-27 15 -48 4 -20 11 -40 16 -43 5 -3 9 -15 9 -28 0 -12 4 -26 9 -31 4 -6 13
-29 19 -52 l10 -43 -134 0 -134 0 -15 -37 c-8 -20 -18 -53 -21 -75 -4 -21 -11
-41 -15 -44 -5 -3 -9 -13 -9 -23 0 -20 -23 -100 -46 -164 -26 -71 -43 -67 250
-67 l264 0 7 -36 c3 -20 10 -44 14 -53 5 -9 17 -43 27 -76 9 -33 21 -64 26
-69 4 -6 8 -20 8 -33 l0 -23 248 0 c137 0 251 2 254 5 5 6 -11 61 -24 81 -4 6
-10 30 -14 52 -4 23 -10 42 -15 42 -5 0 -9 9 -9 20 0 19 -23 88 -39 120 -5 9
-12 31 -16 50 -4 19 -11 41 -15 50 -4 8 -16 42 -26 75 -10 33 -21 65 -25 70
-4 6 -10 27 -14 48 -4 20 -11 39 -15 42 -5 3 -11 23 -15 45 -4 22 -11 42 -16
46 -5 3 -9 16 -9 29 0 13 -4 26 -9 29 -5 4 -12 24 -16 46 -4 22 -10 42 -15 45
-5 3 -11 23 -15 45 -4 22 -11 42 -16 46 -5 3 -9 16 -9 29 0 13 -4 26 -9 29 -5
3 -12 23 -16 43 -4 21 -10 43 -14 48 -4 6 -15 37 -25 70 -10 33 -21 67 -26 75
-4 9 -11 31 -15 50 -4 19 -10 40 -14 45 -4 6 -22 57 -40 115 -43 134 -38 119
-77 230 -19 52 -34 103 -34 113 0 9 -4 17 -10 17 -5 0 -10 9 -10 21 0 11 -5
29 -10 40 -10 18 -24 19 -283 19 -250 0 -273 -1 -283 -18z"/>
<path d="M2182 1978 l3 -963 242 -3 243 -2 2 761 3 761 140 -1 c160 -2 213
-15 276 -69 63 -54 82 -108 77 -217 -4 -86 -6 -95 -38 -140 -55 -75 -116 -103
-270 -123 l-55 -7 -3 -180 c-1 -99 0 -190 3 -203 6 -23 9 -23 88 -19 105 6
259 26 272 36 5 5 24 11 41 14 132 25 316 167 379 292 11 22 22 42 25 45 5 5
31 87 49 156 21 80 7 326 -21 369 -3 6 -9 27 -13 48 -4 20 -11 37 -16 37 -5 0
-9 5 -9 10 0 20 -68 117 -112 160 -48 48 -123 99 -183 124 -22 10 -47 21 -56
26 -9 5 -34 12 -55 16 -22 3 -45 12 -53 18 -10 8 -158 12 -488 14 l-473 3 2
-963z"/>
</g>
</svg>
